<?xml version="1.0" encoding="UTF-8"?>
<svg xmlns="http://www.w3.org/2000/svg" version="1.1" xmlns:xlink="http://www.w3.org/1999/xlink" viewBox="0 0 517.15 325.12">
  <defs>
    <style>
      .cls-1 {
        fill: #fdfefe;
      }

      .cls-2, .cls-3 {
        fill: #2a4560;
      }

      .cls-4, .cls-5 {
        fill: #fff;
      }

      .cls-6, .cls-7 {
        fill: none;
      }

      .cls-6, .cls-3 {
        stroke: #fff;
        stroke-miterlimit: 10;
        stroke-width: 5px;
      }

      .cls-8 {
        fill: #7ca895;
      }

      .cls-9 {
        fill: #5ba4b5;
      }

      .cls-10 {
        font-size: 48px;
      }

      .cls-5 {
        font-family: Belgium, Belgium;
      }

      .cls-11 {
        font-size: 29px;
      }
    </style>
    <path id="path" d="M92.09,312.83c46-40,60.58-118.68,60.58-118.68,0,0,43.5,160.52,364.48-41.21"/>
  </defs>
  <!-- Generator: Adobe Illustrator 28.7.0, SVG Export Plug-In . SVG Version: 1.2.0 Build 136)  -->
  <g>
    <g id="Layer_1">
      <rect class="cls-2" x="-.25" width="517.4" height="325.12"/>
      <path class="cls-4" d="M510.4,159.94c-77.76,54.54-216.78,134.41-313.1,98.8-25.35-9.69-47.75-29.99-55.91-56.36,0,0,9.14-.37,9.14-.37-2.5,11.28-5.85,22.19-9.78,33.02-11.79,31.78-28.44,63.41-55.41,84.8,16-15.8,27.61-35.39,36.51-55.89,11.43-25.85,18.43-54.22,22.68-82.12,1.47,4.3,6.12,19.65,8.07,23.39,6.05,12.74,15.75,23.61,27.28,31.67,86.51,58.14,249.73-32.96,330.53-76.93h0Z"/>
      <ellipse class="cls-2" cx="312.03" cy="196.07" rx="58.41" ry="26" transform="translate(-49 122.15) rotate(-20.57)"/>
      <ellipse class="cls-7" cx="287.46" cy="195.58" rx="58.41" ry="26" transform="translate(-50.39 113.48) rotate(-20.57)"/>
      <ellipse class="cls-6" cx="304.08" cy="200.56" rx="58.41" ry="26" transform="translate(-51.08 119.64) rotate(-20.57)"/>
      <text/>
      <path class="cls-1" d="M5.44,154.26c4.21-12.59,13.14-24.32,25.36-30.38,8.13-4.18,17.15-6.42,26.12-7.73,13.25-1.33,26.71-.87,39.89-1.14-4.6.91,321.54-84.5,320.32-84.28,0,0-1.97,1.37-1.97,1.37.37-.52.66-.87.98-1.28,4.68-5.6,10.2-10.54,16.3-14.52,6.64-3.99,13.79-7.01,21.16-9.01,14.52-4.01,30.09-3.82,44.71-.72-11.05-.93-22.11-.39-32.84,2.21-10.46,2.49-20.53,7.06-29.12,13.4-5.42,3.73-10.62,7.89-14.76,13.03-.42.55-1.1,1.42-1.49,1.97,0,0-1.19.31-1.19.31L97.76,121.9l-.41.11s-.43,0-.43,0c-8.86.13-17.65.05-26.34.33-8.6.48-17.2.87-25.66,2.26-17.75,2.79-31.58,13.33-39.48,29.66h0Z"/>
      <path class="cls-3" d="M366.77,50.15c-4.08,10.2,8.84,24.31,8.84,24.31,11.56,26.53-1.36,56.64-17.69,59.36-16.33,2.72-21.6,27.53-21.6,27.53-53.38,74.79-77.04,7-77.04,7,0,0-1.96-6-5.96-15.5-1.09-2.58,1-6.5-30.1-6.78,0,0-14.29,8.16-44.22-10.88-29.93-19.05-28.57-15.65-28.57-15.65l-24.49-11.56s2.04-21.77,33.33-10.2l.68,12.93,55.78,17.69s44.08-5.53,61.08,5.97l-2-1,.78-6.33s-22.78-10.17-10.78-28.17c1.98-2.97,6.79-3.04,11.46-5.84,37.41-22.45,21.09,28.57,21.09,28.57l39.46-3.4s12.24-13.61,21.77-16.33c0,0-4.76,5.44-3.4-35.37,0,0-1.36-14.97-15.65-10.88,0,0-1.36-19.73,26.53-9.52l.68,4.08Z"/>
      <path class="cls-8" d="M82.8,130.23s-10.55-5.27-49.81,16.41c0,0-6.45-7.03,4.69-16.41,0,0-12.31,4.1-16.41,24.03,0,0,36.34,5.27,61.54-24.03Z"/>
      <path class="cls-4" d="M247.89,98.99s42.08,3.7,54.28-2c0,0-17.8-34.69-38.19-4.46l-19.88-5.05s-9.24-.46,3.78,11.51Z"/>
      <path class="cls-4" d="M270.54,181.97l-.75,13.27s27.73,27.42,59.2-4.42l11.24-49.54"/>
      <path class="cls-9" d="M433.22,34.91c2.71-3.83,4.71-10.95,58.54-10.26,0,0,2.68-10.47-13.46-13.88,0,0,14.49-2.49,29.25,15.22,0,0-33.48,24.71-74.33,8.92Z"/>
      <text>
        <textPath startOffset="73.3%" xlink:href="#path"><tspan class="cls-5"><tspan class="cls-11" x="0" y="0" xml:space="preserve">                    </tspan><tspan class="cls-10" x="0" y="0">DCKC</tspan></tspan>
        </textPath></text>
      <polygon class="cls-4" points="338.24 142.57 345.74 137.65 341.24 150.65 336.07 152.32 338.24 142.57"/>
    </g>
  </g>
</svg>